solid OpenSCAD_Model
  facet normal -1 0 0
    outer loop
      vertex -50 -12.5 -2
      vertex -50 -12.4315 2
      vertex -50 -12.4315 -2
    endloop
  endfacet
  facet normal -1 -0 0
    outer loop
      vertex -50 -12.4315 2
      vertex -50 -12.5 -2
      vertex -50 -12.5 2
    endloop
  endfacet
  facet normal -1 0 0
    outer loop
      vertex -50 12.4315 -2
      vertex -50 12.5 2
      vertex -50 12.5 -2
    endloop
  endfacet
  facet normal -1 -0 0
    outer loop
      vertex -50 12.5 2
      vertex -50 12.4315 -2
      vertex -50 12.4315 2
    endloop
  endfacet
  facet normal -0 0 1
    outer loop
      vertex -50.9271 -2.85317 2
      vertex -50 -12.4315 2
      vertex -49.0729 -2.85317 2
    endloop
  endfacet
  facet normal 0 0 1
    outer loop
      vertex -50.9271 -2.85317 2
      vertex -51.3066 -12.4315 2
      vertex -50 -12.4315 2
    endloop
  endfacet
  facet normal 0 0 1
    outer loop
      vertex -56.25 -10.8253 2
      vertex -50.9271 -2.85317 2
      vertex -52.4271 -1.76336 2
    endloop
  endfacet
  facet normal 0 0 1
    outer loop
      vertex -61.4193 -5.08421 2
      vertex -52.4271 -1.76336 2
      vertex -53 0 2
    endloop
  endfacet
  facet normal 0 0 1
    outer loop
      vertex -50.9271 -2.85317 2
      vertex -53.8627 -11.8882 2
      vertex -51.3066 -12.4315 2
    endloop
  endfacet
  facet normal -0 0 1
    outer loop
      vertex -58.3641 9.28931 2
      vertex -52.4271 1.76336 2
      vertex -56.25 10.8253 2
    endloop
  endfacet
  facet normal -0 0 1
    outer loop
      vertex -60.1127 7.34731 2
      vertex -52.4271 1.76336 2
      vertex -58.3641 9.28931 2
    endloop
  endfacet
  facet normal 0 0 1
    outer loop
      vertex -50.9271 -2.85317 2
      vertex -56.25 -10.8253 2
      vertex -53.8627 -11.8882 2
    endloop
  endfacet
  facet normal -0 0 1
    outer loop
      vertex -61.4193 5.08421 2
      vertex -52.4271 1.76336 2
      vertex -60.1127 7.34731 2
    endloop
  endfacet
  facet normal 0 0 1
    outer loop
      vertex -52.4271 -1.76336 2
      vertex -58.3641 -9.28931 2
      vertex -56.25 -10.8253 2
    endloop
  endfacet
  facet normal 0 0 1
    outer loop
      vertex -52.4271 1.76336 2
      vertex -61.4193 5.08421 2
      vertex -53 0 2
    endloop
  endfacet
  facet normal 0 0 1
    outer loop
      vertex -52.4271 -1.76336 2
      vertex -60.1127 -7.34731 2
      vertex -58.3641 -9.28931 2
    endloop
  endfacet
  facet normal -0 0 1
    outer loop
      vertex -62.2268 2.5989 2
      vertex -53 0 2
      vertex -61.4193 5.08421 2
    endloop
  endfacet
  facet normal 0 0 1
    outer loop
      vertex -52.4271 -1.76336 2
      vertex -61.4193 -5.08421 2
      vertex -60.1127 -7.34731 2
    endloop
  endfacet
  facet normal 0 0 1
    outer loop
      vertex -62.5 0 2
      vertex -53 0 2
      vertex -62.2268 2.5989 2
    endloop
  endfacet
  facet normal 0 0 1
    outer loop
      vertex -53 0 2
      vertex -62.2268 -2.5989 2
      vertex -61.4193 -5.08421 2
    endloop
  endfacet
  facet normal 0 0 1
    outer loop
      vertex -53 0 2
      vertex -62.5 0 2
      vertex -62.2268 -2.5989 2
    endloop
  endfacet
  facet normal 0 0 1
    outer loop
      vertex 47.5729 1.76336 2
      vertex 50 12.4315 2
      vertex 50 12.5 2
    endloop
  endfacet
  facet normal 0 0 1
    outer loop
      vertex 50 12.4315 2
      vertex 47.5729 1.76336 2
      vertex 49.0729 2.85317 2
    endloop
  endfacet
  facet normal 0 0 1
    outer loop
      vertex 2.42705 1.76336 2
      vertex 47.5729 1.76336 2
      vertex 50 12.5 2
    endloop
  endfacet
  facet normal 0 0 1
    outer loop
      vertex 47.5729 1.76336 2
      vertex 2.42705 1.76336 2
      vertex 47 0 2
    endloop
  endfacet
  facet normal 0 0 1
    outer loop
      vertex 47 0 2
      vertex 2.42705 1.76336 2
      vertex 3 0 2
    endloop
  endfacet
  facet normal 0 0 1
    outer loop
      vertex 50 12.5 2
      vertex 0.927051 2.85317 2
      vertex 2.42705 1.76336 2
    endloop
  endfacet
  facet normal 0 0 1
    outer loop
      vertex 50 12.5 2
      vertex -0.927051 2.85317 2
      vertex 0.927051 2.85317 2
    endloop
  endfacet
  facet normal 0 0 1
    outer loop
      vertex -2.42705 1.76336 2
      vertex -47 0 2
      vertex -3 0 2
    endloop
  endfacet
  facet normal 0 0 1
    outer loop
      vertex -50 12.5 2
      vertex -2.42705 1.76336 2
      vertex -0.927051 2.85317 2
    endloop
  endfacet
  facet normal -0 0 1
    outer loop
      vertex -50 12.5 2
      vertex -0.927051 2.85317 2
      vertex 50 12.5 2
    endloop
  endfacet
  facet normal 0 0 1
    outer loop
      vertex -2.42705 1.76336 2
      vertex -47.5729 1.76336 2
      vertex -47 0 2
    endloop
  endfacet
  facet normal 0 0 1
    outer loop
      vertex -2.42705 1.76336 2
      vertex -50 12.5 2
      vertex -47.5729 1.76336 2
    endloop
  endfacet
  facet normal -0 0 1
    outer loop
      vertex -50 12.4315 2
      vertex -47.5729 1.76336 2
      vertex -50 12.5 2
    endloop
  endfacet
  facet normal 0 0 1
    outer loop
      vertex -47.5729 1.76336 2
      vertex -50 12.4315 2
      vertex -49.0729 2.85317 2
    endloop
  endfacet
  facet normal 0 0 1
    outer loop
      vertex -50 12.4315 2
      vertex -50.9271 2.85317 2
      vertex -49.0729 2.85317 2
    endloop
  endfacet
  facet normal -0 0 1
    outer loop
      vertex -51.3066 12.4315 2
      vertex -50.9271 2.85317 2
      vertex -50 12.4315 2
    endloop
  endfacet
  facet normal -0 0 1
    outer loop
      vertex -53.8627 11.8882 2
      vertex -50.9271 2.85317 2
      vertex -51.3066 12.4315 2
    endloop
  endfacet
  facet normal -0 0 1
    outer loop
      vertex -56.25 10.8253 2
      vertex -50.9271 2.85317 2
      vertex -53.8627 11.8882 2
    endloop
  endfacet
  facet normal 0 0 1
    outer loop
      vertex -50.9271 2.85317 2
      vertex -56.25 10.8253 2
      vertex -52.4271 1.76336 2
    endloop
  endfacet
  facet normal 0 0 1
    outer loop
      vertex 53 0 2
      vertex 62.5 0 2
      vertex 62.2268 2.5989 2
    endloop
  endfacet
  facet normal 0 0 1
    outer loop
      vertex 53 0 2
      vertex 62.2268 2.5989 2
      vertex 61.4193 5.08421 2
    endloop
  endfacet
  facet normal 0 0 1
    outer loop
      vertex 62.5 0 2
      vertex 53 0 2
      vertex 62.2268 -2.5989 2
    endloop
  endfacet
  facet normal 0 0 1
    outer loop
      vertex 52.4271 1.76336 2
      vertex 61.4193 5.08421 2
      vertex 60.1127 7.34731 2
    endloop
  endfacet
  facet normal 0 0 1
    outer loop
      vertex 62.2268 -2.5989 2
      vertex 53 0 2
      vertex 61.4193 -5.08421 2
    endloop
  endfacet
  facet normal 0 0 1
    outer loop
      vertex 52.4271 1.76336 2
      vertex 60.1127 7.34731 2
      vertex 58.3641 9.28931 2
    endloop
  endfacet
  facet normal -0 0 1
    outer loop
      vertex 52.4271 -1.76336 2
      vertex 61.4193 -5.08421 2
      vertex 53 0 2
    endloop
  endfacet
  facet normal 0 0 1
    outer loop
      vertex 52.4271 1.76336 2
      vertex 58.3641 9.28931 2
      vertex 56.25 10.8253 2
    endloop
  endfacet
  facet normal 0 0 1
    outer loop
      vertex 61.4193 -5.08421 2
      vertex 52.4271 -1.76336 2
      vertex 60.1127 -7.34731 2
    endloop
  endfacet
  facet normal 0 0 1
    outer loop
      vertex 50.9271 2.85317 2
      vertex 56.25 10.8253 2
      vertex 53.8627 11.8882 2
    endloop
  endfacet
  facet normal 0 0 1
    outer loop
      vertex 60.1127 -7.34731 2
      vertex 52.4271 -1.76336 2
      vertex 58.3641 -9.28931 2
    endloop
  endfacet
  facet normal 0 0 1
    outer loop
      vertex 58.3641 -9.28931 2
      vertex 52.4271 -1.76336 2
      vertex 56.25 -10.8253 2
    endloop
  endfacet
  facet normal 0 0 1
    outer loop
      vertex 61.4193 5.08421 2
      vertex 52.4271 1.76336 2
      vertex 53 0 2
    endloop
  endfacet
  facet normal 0 0 1
    outer loop
      vertex 50.9271 2.85317 2
      vertex 53.8627 11.8882 2
      vertex 51.3066 12.4315 2
    endloop
  endfacet
  facet normal 0 0 1
    outer loop
      vertex 56.25 10.8253 2
      vertex 50.9271 2.85317 2
      vertex 52.4271 1.76336 2
    endloop
  endfacet
  facet normal -0 0 1
    outer loop
      vertex 50 12.4315 2
      vertex 50.9271 2.85317 2
      vertex 51.3066 12.4315 2
    endloop
  endfacet
  facet normal 0 0 1
    outer loop
      vertex 50.9271 2.85317 2
      vertex 50 12.4315 2
      vertex 49.0729 2.85317 2
    endloop
  endfacet
  facet normal -0 0 1
    outer loop
      vertex 50.9271 -2.85317 2
      vertex 56.25 -10.8253 2
      vertex 52.4271 -1.76336 2
    endloop
  endfacet
  facet normal 0 0 1
    outer loop
      vertex 56.25 -10.8253 2
      vertex 50.9271 -2.85317 2
      vertex 53.8627 -11.8882 2
    endloop
  endfacet
  facet normal 0 0 1
    outer loop
      vertex 53.8627 -11.8882 2
      vertex 50.9271 -2.85317 2
      vertex 51.3066 -12.4315 2
    endloop
  endfacet
  facet normal 0 0 1
    outer loop
      vertex 50.9271 -2.85317 2
      vertex 50 -12.4315 2
      vertex 51.3066 -12.4315 2
    endloop
  endfacet
  facet normal -0 0 1
    outer loop
      vertex 49.0729 -2.85317 2
      vertex 50 -12.4315 2
      vertex 50.9271 -2.85317 2
    endloop
  endfacet
  facet normal 0 0 1
    outer loop
      vertex 47.5729 -1.76336 2
      vertex 50 -12.4315 2
      vertex 49.0729 -2.85317 2
    endloop
  endfacet
  facet normal 0 0 1
    outer loop
      vertex 50 -12.4315 2
      vertex 47.5729 -1.76336 2
      vertex 50 -12.5 2
    endloop
  endfacet
  facet normal 0 0 1
    outer loop
      vertex 2.42705 -1.76336 2
      vertex 47.5729 -1.76336 2
      vertex 47 0 2
    endloop
  endfacet
  facet normal 0 0 1
    outer loop
      vertex 2.42705 -1.76336 2
      vertex 47 0 2
      vertex 3 0 2
    endloop
  endfacet
  facet normal 0 0 1
    outer loop
      vertex 47.5729 -1.76336 2
      vertex 2.42705 -1.76336 2
      vertex 50 -12.5 2
    endloop
  endfacet
  facet normal -0 0 1
    outer loop
      vertex 0.927051 -2.85317 2
      vertex 50 -12.5 2
      vertex 2.42705 -1.76336 2
    endloop
  endfacet
  facet normal -0 0 1
    outer loop
      vertex -0.927051 -2.85317 2
      vertex 50 -12.5 2
      vertex 0.927051 -2.85317 2
    endloop
  endfacet
  facet normal -0 0 1
    outer loop
      vertex -47 0 2
      vertex -2.42705 -1.76336 2
      vertex -3 0 2
    endloop
  endfacet
  facet normal 0 0 1
    outer loop
      vertex -47.5729 -1.76336 2
      vertex -2.42705 -1.76336 2
      vertex -47 0 2
    endloop
  endfacet
  facet normal 0 0 1
    outer loop
      vertex -50 -12.5 2
      vertex -2.42705 -1.76336 2
      vertex -47.5729 -1.76336 2
    endloop
  endfacet
  facet normal 0 0 1
    outer loop
      vertex -2.42705 -1.76336 2
      vertex -50 -12.5 2
      vertex -0.927051 -2.85317 2
    endloop
  endfacet
  facet normal 0 0 1
    outer loop
      vertex -50 -12.4315 2
      vertex -47.5729 -1.76336 2
      vertex -49.0729 -2.85317 2
    endloop
  endfacet
  facet normal 0 0 1
    outer loop
      vertex -50 -12.5 2
      vertex -47.5729 -1.76336 2
      vertex -50 -12.4315 2
    endloop
  endfacet
  facet normal 0 0 1
    outer loop
      vertex -0.927051 -2.85317 2
      vertex -50 -12.5 2
      vertex 50 -12.5 2
    endloop
  endfacet
  facet normal 1 -0 0
    outer loop
      vertex 50 -12.5 2
      vertex 50 -12.4315 -2
      vertex 50 -12.4315 2
    endloop
  endfacet
  facet normal 1 0 0
    outer loop
      vertex 50 -12.4315 -2
      vertex 50 -12.5 2
      vertex 50 -12.5 -2
    endloop
  endfacet
  facet normal 1 -0 0
    outer loop
      vertex 50 12.4315 2
      vertex 50 12.5 -2
      vertex 50 12.5 2
    endloop
  endfacet
  facet normal 1 0 0
    outer loop
      vertex 50 12.5 -2
      vertex 50 12.4315 2
      vertex 50 12.4315 -2
    endloop
  endfacet
  facet normal 0 0 -1
    outer loop
      vertex -50.9271 2.85317 -2
      vertex -50 12.4315 -2
      vertex -49.0729 2.85317 -2
    endloop
  endfacet
  facet normal 0 0 -1
    outer loop
      vertex -50.9271 2.85317 -2
      vertex -51.3066 12.4315 -2
      vertex -50 12.4315 -2
    endloop
  endfacet
  facet normal 0 0 -1
    outer loop
      vertex -56.25 10.8253 -2
      vertex -50.9271 2.85317 -2
      vertex -52.4271 1.76336 -2
    endloop
  endfacet
  facet normal 0 0 -1
    outer loop
      vertex -61.4193 5.08421 -2
      vertex -52.4271 1.76336 -2
      vertex -53 0 -2
    endloop
  endfacet
  facet normal 0 0 -1
    outer loop
      vertex -50.9271 2.85317 -2
      vertex -53.8627 11.8882 -2
      vertex -51.3066 12.4315 -2
    endloop
  endfacet
  facet normal 0 0 -1
    outer loop
      vertex -58.3641 -9.28931 -2
      vertex -52.4271 -1.76336 -2
      vertex -56.25 -10.8253 -2
    endloop
  endfacet
  facet normal 0 0 -1
    outer loop
      vertex -60.1127 -7.34731 -2
      vertex -52.4271 -1.76336 -2
      vertex -58.3641 -9.28931 -2
    endloop
  endfacet
  facet normal 0 0 -1
    outer loop
      vertex -50.9271 2.85317 -2
      vertex -56.25 10.8253 -2
      vertex -53.8627 11.8882 -2
    endloop
  endfacet
  facet normal 0 0 -1
    outer loop
      vertex -61.4193 -5.08421 -2
      vertex -52.4271 -1.76336 -2
      vertex -60.1127 -7.34731 -2
    endloop
  endfacet
  facet normal 0 0 -1
    outer loop
      vertex -52.4271 1.76336 -2
      vertex -58.3641 9.28931 -2
      vertex -56.25 10.8253 -2
    endloop
  endfacet
  facet normal -0 0 -1
    outer loop
      vertex -52.4271 -1.76336 -2
      vertex -61.4193 -5.08421 -2
      vertex -53 0 -2
    endloop
  endfacet
  facet normal 0 0 -1
    outer loop
      vertex -52.4271 1.76336 -2
      vertex -60.1127 7.34731 -2
      vertex -58.3641 9.28931 -2
    endloop
  endfacet
  facet normal 0 0 -1
    outer loop
      vertex -62.2268 -2.5989 -2
      vertex -53 0 -2
      vertex -61.4193 -5.08421 -2
    endloop
  endfacet
  facet normal 0 0 -1
    outer loop
      vertex -52.4271 1.76336 -2
      vertex -61.4193 5.08421 -2
      vertex -60.1127 7.34731 -2
    endloop
  endfacet
  facet normal 0 0 -1
    outer loop
      vertex -62.5 0 -2
      vertex -53 0 -2
      vertex -62.2268 -2.5989 -2
    endloop
  endfacet
  facet normal 0 0 -1
    outer loop
      vertex -53 0 -2
      vertex -62.2268 2.5989 -2
      vertex -61.4193 5.08421 -2
    endloop
  endfacet
  facet normal 0 0 -1
    outer loop
      vertex -53 0 -2
      vertex -62.5 0 -2
      vertex -62.2268 2.5989 -2
    endloop
  endfacet
  facet normal 0 0 -1
    outer loop
      vertex 47.5729 -1.76336 -2
      vertex 50 -12.4315 -2
      vertex 50 -12.5 -2
    endloop
  endfacet
  facet normal 0 0 -1
    outer loop
      vertex 50 -12.4315 -2
      vertex 47.5729 -1.76336 -2
      vertex 49.0729 -2.85317 -2
    endloop
  endfacet
  facet normal 0 0 -1
    outer loop
      vertex 2.42705 -1.76336 -2
      vertex 47.5729 -1.76336 -2
      vertex 50 -12.5 -2
    endloop
  endfacet
  facet normal 0 0 -1
    outer loop
      vertex 47.5729 -1.76336 -2
      vertex 2.42705 -1.76336 -2
      vertex 47 0 -2
    endloop
  endfacet
  facet normal -0 0 -1
    outer loop
      vertex 47 0 -2
      vertex 2.42705 -1.76336 -2
      vertex 3 0 -2
    endloop
  endfacet
  facet normal 0 0 -1
    outer loop
      vertex 50 -12.5 -2
      vertex 0.927051 -2.85317 -2
      vertex 2.42705 -1.76336 -2
    endloop
  endfacet
  facet normal 0 0 -1
    outer loop
      vertex 50 -12.5 -2
      vertex -0.927051 -2.85317 -2
      vertex 0.927051 -2.85317 -2
    endloop
  endfacet
  facet normal 0 0 -1
    outer loop
      vertex -2.42705 -1.76336 -2
      vertex -47 0 -2
      vertex -3 0 -2
    endloop
  endfacet
  facet normal 0 0 -1
    outer loop
      vertex -50 -12.5 -2
      vertex -2.42705 -1.76336 -2
      vertex -0.927051 -2.85317 -2
    endloop
  endfacet
  facet normal 0 0 -1
    outer loop
      vertex -50 -12.5 -2
      vertex -0.927051 -2.85317 -2
      vertex 50 -12.5 -2
    endloop
  endfacet
  facet normal 0 0 -1
    outer loop
      vertex -2.42705 -1.76336 -2
      vertex -47.5729 -1.76336 -2
      vertex -47 0 -2
    endloop
  endfacet
  facet normal -0 0 -1
    outer loop
      vertex -2.42705 -1.76336 -2
      vertex -50 -12.5 -2
      vertex -47.5729 -1.76336 -2
    endloop
  endfacet
  facet normal 0 0 -1
    outer loop
      vertex -50 -12.4315 -2
      vertex -47.5729 -1.76336 -2
      vertex -50 -12.5 -2
    endloop
  endfacet
  facet normal 0 0 -1
    outer loop
      vertex -47.5729 -1.76336 -2
      vertex -50 -12.4315 -2
      vertex -49.0729 -2.85317 -2
    endloop
  endfacet
  facet normal 0 0 -1
    outer loop
      vertex -50 -12.4315 -2
      vertex -50.9271 -2.85317 -2
      vertex -49.0729 -2.85317 -2
    endloop
  endfacet
  facet normal 0 0 -1
    outer loop
      vertex -51.3066 -12.4315 -2
      vertex -50.9271 -2.85317 -2
      vertex -50 -12.4315 -2
    endloop
  endfacet
  facet normal 0 0 -1
    outer loop
      vertex -53.8627 -11.8882 -2
      vertex -50.9271 -2.85317 -2
      vertex -51.3066 -12.4315 -2
    endloop
  endfacet
  facet normal 0 0 -1
    outer loop
      vertex -56.25 -10.8253 -2
      vertex -50.9271 -2.85317 -2
      vertex -53.8627 -11.8882 -2
    endloop
  endfacet
  facet normal -0 0 -1
    outer loop
      vertex -50.9271 -2.85317 -2
      vertex -56.25 -10.8253 -2
      vertex -52.4271 -1.76336 -2
    endloop
  endfacet
  facet normal 0 0 -1
    outer loop
      vertex 53 0 -2
      vertex 62.5 0 -2
      vertex 62.2268 -2.5989 -2
    endloop
  endfacet
  facet normal 0 0 -1
    outer loop
      vertex 53 0 -2
      vertex 62.2268 -2.5989 -2
      vertex 61.4193 -5.08421 -2
    endloop
  endfacet
  facet normal 0 0 -1
    outer loop
      vertex 62.5 0 -2
      vertex 53 0 -2
      vertex 62.2268 2.5989 -2
    endloop
  endfacet
  facet normal 0 0 -1
    outer loop
      vertex 52.4271 -1.76336 -2
      vertex 61.4193 -5.08421 -2
      vertex 60.1127 -7.34731 -2
    endloop
  endfacet
  facet normal -0 0 -1
    outer loop
      vertex 62.2268 2.5989 -2
      vertex 53 0 -2
      vertex 61.4193 5.08421 -2
    endloop
  endfacet
  facet normal 0 0 -1
    outer loop
      vertex 52.4271 -1.76336 -2
      vertex 60.1127 -7.34731 -2
      vertex 58.3641 -9.28931 -2
    endloop
  endfacet
  facet normal 0 0 -1
    outer loop
      vertex 52.4271 1.76336 -2
      vertex 61.4193 5.08421 -2
      vertex 53 0 -2
    endloop
  endfacet
  facet normal 0 0 -1
    outer loop
      vertex 52.4271 -1.76336 -2
      vertex 58.3641 -9.28931 -2
      vertex 56.25 -10.8253 -2
    endloop
  endfacet
  facet normal -0 0 -1
    outer loop
      vertex 61.4193 5.08421 -2
      vertex 52.4271 1.76336 -2
      vertex 60.1127 7.34731 -2
    endloop
  endfacet
  facet normal 0 0 -1
    outer loop
      vertex 50.9271 -2.85317 -2
      vertex 56.25 -10.8253 -2
      vertex 53.8627 -11.8882 -2
    endloop
  endfacet
  facet normal -0 0 -1
    outer loop
      vertex 60.1127 7.34731 -2
      vertex 52.4271 1.76336 -2
      vertex 58.3641 9.28931 -2
    endloop
  endfacet
  facet normal -0 0 -1
    outer loop
      vertex 58.3641 9.28931 -2
      vertex 52.4271 1.76336 -2
      vertex 56.25 10.8253 -2
    endloop
  endfacet
  facet normal 0 0 -1
    outer loop
      vertex 61.4193 -5.08421 -2
      vertex 52.4271 -1.76336 -2
      vertex 53 0 -2
    endloop
  endfacet
  facet normal 0 0 -1
    outer loop
      vertex 50.9271 -2.85317 -2
      vertex 53.8627 -11.8882 -2
      vertex 51.3066 -12.4315 -2
    endloop
  endfacet
  facet normal 0 0 -1
    outer loop
      vertex 56.25 -10.8253 -2
      vertex 50.9271 -2.85317 -2
      vertex 52.4271 -1.76336 -2
    endloop
  endfacet
  facet normal 0 0 -1
    outer loop
      vertex 50 -12.4315 -2
      vertex 50.9271 -2.85317 -2
      vertex 51.3066 -12.4315 -2
    endloop
  endfacet
  facet normal -0 0 -1
    outer loop
      vertex 50.9271 -2.85317 -2
      vertex 50 -12.4315 -2
      vertex 49.0729 -2.85317 -2
    endloop
  endfacet
  facet normal 0 0 -1
    outer loop
      vertex 50.9271 2.85317 -2
      vertex 56.25 10.8253 -2
      vertex 52.4271 1.76336 -2
    endloop
  endfacet
  facet normal -0 0 -1
    outer loop
      vertex 56.25 10.8253 -2
      vertex 50.9271 2.85317 -2
      vertex 53.8627 11.8882 -2
    endloop
  endfacet
  facet normal -0 0 -1
    outer loop
      vertex 53.8627 11.8882 -2
      vertex 50.9271 2.85317 -2
      vertex 51.3066 12.4315 -2
    endloop
  endfacet
  facet normal 0 0 -1
    outer loop
      vertex 50.9271 2.85317 -2
      vertex 50 12.4315 -2
      vertex 51.3066 12.4315 -2
    endloop
  endfacet
  facet normal 0 0 -1
    outer loop
      vertex 49.0729 2.85317 -2
      vertex 50 12.4315 -2
      vertex 50.9271 2.85317 -2
    endloop
  endfacet
  facet normal 0 0 -1
    outer loop
      vertex 47.5729 1.76336 -2
      vertex 50 12.4315 -2
      vertex 49.0729 2.85317 -2
    endloop
  endfacet
  facet normal -0 0 -1
    outer loop
      vertex 50 12.4315 -2
      vertex 47.5729 1.76336 -2
      vertex 50 12.5 -2
    endloop
  endfacet
  facet normal 0 0 -1
    outer loop
      vertex 2.42705 1.76336 -2
      vertex 47.5729 1.76336 -2
      vertex 47 0 -2
    endloop
  endfacet
  facet normal 0 0 -1
    outer loop
      vertex 2.42705 1.76336 -2
      vertex 47 0 -2
      vertex 3 0 -2
    endloop
  endfacet
  facet normal 0 0 -1
    outer loop
      vertex 47.5729 1.76336 -2
      vertex 2.42705 1.76336 -2
      vertex 50 12.5 -2
    endloop
  endfacet
  facet normal 0 0 -1
    outer loop
      vertex 0.927051 2.85317 -2
      vertex 50 12.5 -2
      vertex 2.42705 1.76336 -2
    endloop
  endfacet
  facet normal 0 0 -1
    outer loop
      vertex -0.927051 2.85317 -2
      vertex 50 12.5 -2
      vertex 0.927051 2.85317 -2
    endloop
  endfacet
  facet normal 0 0 -1
    outer loop
      vertex -47 0 -2
      vertex -2.42705 1.76336 -2
      vertex -3 0 -2
    endloop
  endfacet
  facet normal 0 0 -1
    outer loop
      vertex -47.5729 1.76336 -2
      vertex -2.42705 1.76336 -2
      vertex -47 0 -2
    endloop
  endfacet
  facet normal 0 0 -1
    outer loop
      vertex -50 12.5 -2
      vertex -2.42705 1.76336 -2
      vertex -47.5729 1.76336 -2
    endloop
  endfacet
  facet normal 0 0 -1
    outer loop
      vertex -2.42705 1.76336 -2
      vertex -50 12.5 -2
      vertex -0.927051 2.85317 -2
    endloop
  endfacet
  facet normal 0 0 -1
    outer loop
      vertex -50 12.4315 -2
      vertex -47.5729 1.76336 -2
      vertex -49.0729 2.85317 -2
    endloop
  endfacet
  facet normal 0 0 -1
    outer loop
      vertex -50 12.5 -2
      vertex -47.5729 1.76336 -2
      vertex -50 12.4315 -2
    endloop
  endfacet
  facet normal 0 0 -1
    outer loop
      vertex -0.927051 2.85317 -2
      vertex -50 12.5 -2
      vertex 50 12.5 -2
    endloop
  endfacet
  facet normal 0 -1 0
    outer loop
      vertex -50 -12.5 -2
      vertex 50 -12.5 2
      vertex -50 -12.5 2
    endloop
  endfacet
  facet normal 0 -1 -0
    outer loop
      vertex 50 -12.5 2
      vertex -50 -12.5 -2
      vertex 50 -12.5 -2
    endloop
  endfacet
  facet normal 0 1 -0
    outer loop
      vertex 50 12.5 -2
      vertex -50 12.5 2
      vertex 50 12.5 2
    endloop
  endfacet
  facet normal 0 1 0
    outer loop
      vertex -50 12.5 2
      vertex 50 12.5 -2
      vertex -50 12.5 -2
    endloop
  endfacet
  facet normal 0.994522 0.104529 0
    outer loop
      vertex 62.5 0 2
      vertex 62.2268 2.5989 -2
      vertex 62.2268 2.5989 2
    endloop
  endfacet
  facet normal 0.994522 0.104529 0
    outer loop
      vertex 62.2268 2.5989 -2
      vertex 62.5 0 2
      vertex 62.5 0 -2
    endloop
  endfacet
  facet normal 0 1 -0
    outer loop
      vertex 51.3066 12.4315 -2
      vertex 50 12.4315 2
      vertex 51.3066 12.4315 2
    endloop
  endfacet
  facet normal 0 1 0
    outer loop
      vertex 50 12.4315 2
      vertex 51.3066 12.4315 -2
      vertex 50 12.4315 -2
    endloop
  endfacet
  facet normal 0.587786 0.809017 -0
    outer loop
      vertex 58.3641 9.28931 -2
      vertex 56.25 10.8253 2
      vertex 58.3641 9.28931 2
    endloop
  endfacet
  facet normal 0.587786 0.809017 0
    outer loop
      vertex 56.25 10.8253 2
      vertex 58.3641 9.28931 -2
      vertex 56.25 10.8253 -2
    endloop
  endfacet
  facet normal 0.743145 -0.669131 0
    outer loop
      vertex 58.3641 -9.28931 2
      vertex 60.1127 -7.34731 -2
      vertex 60.1127 -7.34731 2
    endloop
  endfacet
  facet normal 0.743145 -0.669131 0
    outer loop
      vertex 60.1127 -7.34731 -2
      vertex 58.3641 -9.28931 2
      vertex 58.3641 -9.28931 -2
    endloop
  endfacet
  facet normal 0.866025 -0.5 0
    outer loop
      vertex 60.1127 -7.34731 2
      vertex 61.4193 -5.08421 -2
      vertex 61.4193 -5.08421 2
    endloop
  endfacet
  facet normal 0.866025 -0.5 0
    outer loop
      vertex 61.4193 -5.08421 -2
      vertex 60.1127 -7.34731 2
      vertex 60.1127 -7.34731 -2
    endloop
  endfacet
  facet normal 0.866025 0.5 0
    outer loop
      vertex 61.4193 5.08421 2
      vertex 60.1127 7.34731 -2
      vertex 60.1127 7.34731 2
    endloop
  endfacet
  facet normal 0.866025 0.5 0
    outer loop
      vertex 60.1127 7.34731 -2
      vertex 61.4193 5.08421 2
      vertex 61.4193 5.08421 -2
    endloop
  endfacet
  facet normal 0.951057 0.309017 0
    outer loop
      vertex 62.2268 2.5989 2
      vertex 61.4193 5.08421 -2
      vertex 61.4193 5.08421 2
    endloop
  endfacet
  facet normal 0.951057 0.309017 0
    outer loop
      vertex 61.4193 5.08421 -2
      vertex 62.2268 2.5989 2
      vertex 62.2268 2.5989 -2
    endloop
  endfacet
  facet normal 0.743145 0.669131 0
    outer loop
      vertex 60.1127 7.34731 2
      vertex 58.3641 9.28931 -2
      vertex 58.3641 9.28931 2
    endloop
  endfacet
  facet normal 0.743145 0.669131 0
    outer loop
      vertex 58.3641 9.28931 -2
      vertex 60.1127 7.34731 2
      vertex 60.1127 7.34731 -2
    endloop
  endfacet
  facet normal 0.207912 0.978148 -0
    outer loop
      vertex 53.8627 11.8882 -2
      vertex 51.3066 12.4315 2
      vertex 53.8627 11.8882 2
    endloop
  endfacet
  facet normal 0.207912 0.978148 0
    outer loop
      vertex 51.3066 12.4315 2
      vertex 53.8627 11.8882 -2
      vertex 51.3066 12.4315 -2
    endloop
  endfacet
  facet normal 0.406736 0.913546 -0
    outer loop
      vertex 56.25 10.8253 -2
      vertex 53.8627 11.8882 2
      vertex 56.25 10.8253 2
    endloop
  endfacet
  facet normal 0.406736 0.913546 0
    outer loop
      vertex 53.8627 11.8882 2
      vertex 56.25 10.8253 -2
      vertex 53.8627 11.8882 -2
    endloop
  endfacet
  facet normal 0.994522 -0.104529 0
    outer loop
      vertex 62.2268 -2.5989 2
      vertex 62.5 0 -2
      vertex 62.5 0 2
    endloop
  endfacet
  facet normal 0.994522 -0.104529 0
    outer loop
      vertex 62.5 0 -2
      vertex 62.2268 -2.5989 2
      vertex 62.2268 -2.5989 -2
    endloop
  endfacet
  facet normal 0.207912 -0.978148 0
    outer loop
      vertex 51.3066 -12.4315 -2
      vertex 53.8627 -11.8882 2
      vertex 51.3066 -12.4315 2
    endloop
  endfacet
  facet normal 0.207912 -0.978148 0
    outer loop
      vertex 53.8627 -11.8882 2
      vertex 51.3066 -12.4315 -2
      vertex 53.8627 -11.8882 -2
    endloop
  endfacet
  facet normal 0.587786 -0.809017 0
    outer loop
      vertex 56.25 -10.8253 -2
      vertex 58.3641 -9.28931 2
      vertex 56.25 -10.8253 2
    endloop
  endfacet
  facet normal 0.587786 -0.809017 0
    outer loop
      vertex 58.3641 -9.28931 2
      vertex 56.25 -10.8253 -2
      vertex 58.3641 -9.28931 -2
    endloop
  endfacet
  facet normal 0 -1 0
    outer loop
      vertex 50 -12.4315 -2
      vertex 51.3066 -12.4315 2
      vertex 50 -12.4315 2
    endloop
  endfacet
  facet normal 0 -1 -0
    outer loop
      vertex 51.3066 -12.4315 2
      vertex 50 -12.4315 -2
      vertex 51.3066 -12.4315 -2
    endloop
  endfacet
  facet normal 0.406736 -0.913546 0
    outer loop
      vertex 53.8627 -11.8882 -2
      vertex 56.25 -10.8253 2
      vertex 53.8627 -11.8882 2
    endloop
  endfacet
  facet normal 0.406736 -0.913546 0
    outer loop
      vertex 56.25 -10.8253 2
      vertex 53.8627 -11.8882 -2
      vertex 56.25 -10.8253 -2
    endloop
  endfacet
  facet normal 0.951057 -0.309017 0
    outer loop
      vertex 61.4193 -5.08421 2
      vertex 62.2268 -2.5989 -2
      vertex 62.2268 -2.5989 2
    endloop
  endfacet
  facet normal 0.951057 -0.309017 0
    outer loop
      vertex 62.2268 -2.5989 -2
      vertex 61.4193 -5.08421 2
      vertex 61.4193 -5.08421 -2
    endloop
  endfacet
  facet normal -0.994522 0.104529 0
    outer loop
      vertex -62.5 0 -2
      vertex -62.2268 2.5989 2
      vertex -62.2268 2.5989 -2
    endloop
  endfacet
  facet normal -0.994522 0.104529 0
    outer loop
      vertex -62.2268 2.5989 2
      vertex -62.5 0 -2
      vertex -62.5 0 2
    endloop
  endfacet
  facet normal 0 1 -0
    outer loop
      vertex -50 12.4315 -2
      vertex -51.3066 12.4315 2
      vertex -50 12.4315 2
    endloop
  endfacet
  facet normal 0 1 0
    outer loop
      vertex -51.3066 12.4315 2
      vertex -50 12.4315 -2
      vertex -51.3066 12.4315 -2
    endloop
  endfacet
  facet normal 0 -1 0
    outer loop
      vertex -51.3066 -12.4315 -2
      vertex -50 -12.4315 2
      vertex -51.3066 -12.4315 2
    endloop
  endfacet
  facet normal 0 -1 -0
    outer loop
      vertex -50 -12.4315 2
      vertex -51.3066 -12.4315 -2
      vertex -50 -12.4315 -2
    endloop
  endfacet
  facet normal -0.743145 0.669131 0
    outer loop
      vertex -60.1127 7.34731 -2
      vertex -58.3641 9.28931 2
      vertex -58.3641 9.28931 -2
    endloop
  endfacet
  facet normal -0.743145 0.669131 0
    outer loop
      vertex -58.3641 9.28931 2
      vertex -60.1127 7.34731 -2
      vertex -60.1127 7.34731 2
    endloop
  endfacet
  facet normal -0.866025 0.5 0
    outer loop
      vertex -61.4193 5.08421 -2
      vertex -60.1127 7.34731 2
      vertex -60.1127 7.34731 -2
    endloop
  endfacet
  facet normal -0.866025 0.5 0
    outer loop
      vertex -60.1127 7.34731 2
      vertex -61.4193 5.08421 -2
      vertex -61.4193 5.08421 2
    endloop
  endfacet
  facet normal -0.406736 0.913546 0
    outer loop
      vertex -53.8627 11.8882 -2
      vertex -56.25 10.8253 2
      vertex -53.8627 11.8882 2
    endloop
  endfacet
  facet normal -0.406736 0.913546 0
    outer loop
      vertex -56.25 10.8253 2
      vertex -53.8627 11.8882 -2
      vertex -56.25 10.8253 -2
    endloop
  endfacet
  facet normal -0.951057 0.309017 0
    outer loop
      vertex -62.2268 2.5989 -2
      vertex -61.4193 5.08421 2
      vertex -61.4193 5.08421 -2
    endloop
  endfacet
  facet normal -0.951057 0.309017 0
    outer loop
      vertex -61.4193 5.08421 2
      vertex -62.2268 2.5989 -2
      vertex -62.2268 2.5989 2
    endloop
  endfacet
  facet normal -0.587786 0.809017 0
    outer loop
      vertex -56.25 10.8253 -2
      vertex -58.3641 9.28931 2
      vertex -56.25 10.8253 2
    endloop
  endfacet
  facet normal -0.587786 0.809017 0
    outer loop
      vertex -58.3641 9.28931 2
      vertex -56.25 10.8253 -2
      vertex -58.3641 9.28931 -2
    endloop
  endfacet
  facet normal -0.207912 0.978148 0
    outer loop
      vertex -51.3066 12.4315 -2
      vertex -53.8627 11.8882 2
      vertex -51.3066 12.4315 2
    endloop
  endfacet
  facet normal -0.207912 0.978148 0
    outer loop
      vertex -53.8627 11.8882 2
      vertex -51.3066 12.4315 -2
      vertex -53.8627 11.8882 -2
    endloop
  endfacet
  facet normal -0.587786 -0.809017 0
    outer loop
      vertex -58.3641 -9.28931 -2
      vertex -56.25 -10.8253 2
      vertex -58.3641 -9.28931 2
    endloop
  endfacet
  facet normal -0.587786 -0.809017 -0
    outer loop
      vertex -56.25 -10.8253 2
      vertex -58.3641 -9.28931 -2
      vertex -56.25 -10.8253 -2
    endloop
  endfacet
  facet normal -0.866025 -0.5 0
    outer loop
      vertex -60.1127 -7.34731 -2
      vertex -61.4193 -5.08421 2
      vertex -61.4193 -5.08421 -2
    endloop
  endfacet
  facet normal -0.866025 -0.5 0
    outer loop
      vertex -61.4193 -5.08421 2
      vertex -60.1127 -7.34731 -2
      vertex -60.1127 -7.34731 2
    endloop
  endfacet
  facet normal -0.994522 -0.104529 0
    outer loop
      vertex -62.2268 -2.5989 -2
      vertex -62.5 0 2
      vertex -62.5 0 -2
    endloop
  endfacet
  facet normal -0.994522 -0.104529 0
    outer loop
      vertex -62.5 0 2
      vertex -62.2268 -2.5989 -2
      vertex -62.2268 -2.5989 2
    endloop
  endfacet
  facet normal -0.743145 -0.669131 0
    outer loop
      vertex -58.3641 -9.28931 -2
      vertex -60.1127 -7.34731 2
      vertex -60.1127 -7.34731 -2
    endloop
  endfacet
  facet normal -0.743145 -0.669131 0
    outer loop
      vertex -60.1127 -7.34731 2
      vertex -58.3641 -9.28931 -2
      vertex -58.3641 -9.28931 2
    endloop
  endfacet
  facet normal -0.951057 -0.309017 0
    outer loop
      vertex -61.4193 -5.08421 -2
      vertex -62.2268 -2.5989 2
      vertex -62.2268 -2.5989 -2
    endloop
  endfacet
  facet normal -0.951057 -0.309017 0
    outer loop
      vertex -62.2268 -2.5989 2
      vertex -61.4193 -5.08421 -2
      vertex -61.4193 -5.08421 2
    endloop
  endfacet
  facet normal -0.406736 -0.913546 0
    outer loop
      vertex -56.25 -10.8253 -2
      vertex -53.8627 -11.8882 2
      vertex -56.25 -10.8253 2
    endloop
  endfacet
  facet normal -0.406736 -0.913546 -0
    outer loop
      vertex -53.8627 -11.8882 2
      vertex -56.25 -10.8253 -2
      vertex -53.8627 -11.8882 -2
    endloop
  endfacet
  facet normal -0.207912 -0.978148 0
    outer loop
      vertex -53.8627 -11.8882 -2
      vertex -51.3066 -12.4315 2
      vertex -53.8627 -11.8882 2
    endloop
  endfacet
  facet normal -0.207912 -0.978148 -0
    outer loop
      vertex -51.3066 -12.4315 2
      vertex -53.8627 -11.8882 -2
      vertex -51.3066 -12.4315 -2
    endloop
  endfacet
  facet normal -0.951057 -0.309017 0
    outer loop
      vertex 53 0 -2
      vertex 52.4271 1.76336 2
      vertex 52.4271 1.76336 -2
    endloop
  endfacet
  facet normal -0.951057 -0.309017 0
    outer loop
      vertex 52.4271 1.76336 2
      vertex 53 0 -2
      vertex 53 0 2
    endloop
  endfacet
  facet normal 0.951057 0.309017 0
    outer loop
      vertex 47.5729 -1.76336 2
      vertex 47 0 -2
      vertex 47 0 2
    endloop
  endfacet
  facet normal 0.951057 0.309017 0
    outer loop
      vertex 47 0 -2
      vertex 47.5729 -1.76336 2
      vertex 47.5729 -1.76336 -2
    endloop
  endfacet
  facet normal 0 -1 0
    outer loop
      vertex 49.0729 2.85317 -2
      vertex 50.9271 2.85317 2
      vertex 49.0729 2.85317 2
    endloop
  endfacet
  facet normal 0 -1 -0
    outer loop
      vertex 50.9271 2.85317 2
      vertex 49.0729 2.85317 -2
      vertex 50.9271 2.85317 -2
    endloop
  endfacet
  facet normal -0.587785 -0.809017 0
    outer loop
      vertex 50.9271 2.85317 -2
      vertex 52.4271 1.76336 2
      vertex 50.9271 2.85317 2
    endloop
  endfacet
  facet normal -0.587785 -0.809017 -0
    outer loop
      vertex 52.4271 1.76336 2
      vertex 50.9271 2.85317 -2
      vertex 52.4271 1.76336 -2
    endloop
  endfacet
  facet normal 0.587785 -0.809017 0
    outer loop
      vertex 47.5729 1.76336 -2
      vertex 49.0729 2.85317 2
      vertex 47.5729 1.76336 2
    endloop
  endfacet
  facet normal 0.587785 -0.809017 0
    outer loop
      vertex 49.0729 2.85317 2
      vertex 47.5729 1.76336 -2
      vertex 49.0729 2.85317 -2
    endloop
  endfacet
  facet normal -0.587785 0.809017 0
    outer loop
      vertex 52.4271 -1.76336 -2
      vertex 50.9271 -2.85317 2
      vertex 52.4271 -1.76336 2
    endloop
  endfacet
  facet normal -0.587785 0.809017 0
    outer loop
      vertex 50.9271 -2.85317 2
      vertex 52.4271 -1.76336 -2
      vertex 50.9271 -2.85317 -2
    endloop
  endfacet
  facet normal 0.587785 0.809017 -0
    outer loop
      vertex 49.0729 -2.85317 -2
      vertex 47.5729 -1.76336 2
      vertex 49.0729 -2.85317 2
    endloop
  endfacet
  facet normal 0.587785 0.809017 0
    outer loop
      vertex 47.5729 -1.76336 2
      vertex 49.0729 -2.85317 -2
      vertex 47.5729 -1.76336 -2
    endloop
  endfacet
  facet normal 0.951057 -0.309017 0
    outer loop
      vertex 47 0 2
      vertex 47.5729 1.76336 -2
      vertex 47.5729 1.76336 2
    endloop
  endfacet
  facet normal 0.951057 -0.309017 0
    outer loop
      vertex 47.5729 1.76336 -2
      vertex 47 0 2
      vertex 47 0 -2
    endloop
  endfacet
  facet normal -0.951057 0.309017 0
    outer loop
      vertex 52.4271 -1.76336 -2
      vertex 53 0 2
      vertex 53 0 -2
    endloop
  endfacet
  facet normal -0.951057 0.309017 0
    outer loop
      vertex 53 0 2
      vertex 52.4271 -1.76336 -2
      vertex 52.4271 -1.76336 2
    endloop
  endfacet
  facet normal 0 1 -0
    outer loop
      vertex 50.9271 -2.85317 -2
      vertex 49.0729 -2.85317 2
      vertex 50.9271 -2.85317 2
    endloop
  endfacet
  facet normal 0 1 0
    outer loop
      vertex 49.0729 -2.85317 2
      vertex 50.9271 -2.85317 -2
      vertex 49.0729 -2.85317 -2
    endloop
  endfacet
  facet normal -0.951057 -0.309017 0
    outer loop
      vertex -47 0 -2
      vertex -47.5729 1.76336 2
      vertex -47.5729 1.76336 -2
    endloop
  endfacet
  facet normal -0.951057 -0.309017 0
    outer loop
      vertex -47.5729 1.76336 2
      vertex -47 0 -2
      vertex -47 0 2
    endloop
  endfacet
  facet normal 0.951057 -0.309017 0
    outer loop
      vertex -53 0 2
      vertex -52.4271 1.76336 -2
      vertex -52.4271 1.76336 2
    endloop
  endfacet
  facet normal 0.951057 -0.309017 0
    outer loop
      vertex -52.4271 1.76336 -2
      vertex -53 0 2
      vertex -53 0 -2
    endloop
  endfacet
  facet normal 0 1 -0
    outer loop
      vertex -49.0729 -2.85317 -2
      vertex -50.9271 -2.85317 2
      vertex -49.0729 -2.85317 2
    endloop
  endfacet
  facet normal 0 1 0
    outer loop
      vertex -50.9271 -2.85317 2
      vertex -49.0729 -2.85317 -2
      vertex -50.9271 -2.85317 -2
    endloop
  endfacet
  facet normal 0 -1 0
    outer loop
      vertex -50.9271 2.85317 -2
      vertex -49.0729 2.85317 2
      vertex -50.9271 2.85317 2
    endloop
  endfacet
  facet normal 0 -1 -0
    outer loop
      vertex -49.0729 2.85317 2
      vertex -50.9271 2.85317 -2
      vertex -49.0729 2.85317 -2
    endloop
  endfacet
  facet normal -0.587785 -0.809017 0
    outer loop
      vertex -49.0729 2.85317 -2
      vertex -47.5729 1.76336 2
      vertex -49.0729 2.85317 2
    endloop
  endfacet
  facet normal -0.587785 -0.809017 -0
    outer loop
      vertex -47.5729 1.76336 2
      vertex -49.0729 2.85317 -2
      vertex -47.5729 1.76336 -2
    endloop
  endfacet
  facet normal 0.587785 -0.809017 0
    outer loop
      vertex -52.4271 1.76336 -2
      vertex -50.9271 2.85317 2
      vertex -52.4271 1.76336 2
    endloop
  endfacet
  facet normal 0.587785 -0.809017 0
    outer loop
      vertex -50.9271 2.85317 2
      vertex -52.4271 1.76336 -2
      vertex -50.9271 2.85317 -2
    endloop
  endfacet
  facet normal -0.587785 0.809017 0
    outer loop
      vertex -47.5729 -1.76336 -2
      vertex -49.0729 -2.85317 2
      vertex -47.5729 -1.76336 2
    endloop
  endfacet
  facet normal -0.587785 0.809017 0
    outer loop
      vertex -49.0729 -2.85317 2
      vertex -47.5729 -1.76336 -2
      vertex -49.0729 -2.85317 -2
    endloop
  endfacet
  facet normal -0.951057 0.309017 0
    outer loop
      vertex -47.5729 -1.76336 -2
      vertex -47 0 2
      vertex -47 0 -2
    endloop
  endfacet
  facet normal -0.951057 0.309017 0
    outer loop
      vertex -47 0 2
      vertex -47.5729 -1.76336 -2
      vertex -47.5729 -1.76336 2
    endloop
  endfacet
  facet normal 0.587785 0.809017 -0
    outer loop
      vertex -50.9271 -2.85317 -2
      vertex -52.4271 -1.76336 2
      vertex -50.9271 -2.85317 2
    endloop
  endfacet
  facet normal 0.587785 0.809017 0
    outer loop
      vertex -52.4271 -1.76336 2
      vertex -50.9271 -2.85317 -2
      vertex -52.4271 -1.76336 -2
    endloop
  endfacet
  facet normal 0.951057 0.309017 0
    outer loop
      vertex -52.4271 -1.76336 2
      vertex -53 0 -2
      vertex -53 0 2
    endloop
  endfacet
  facet normal 0.951057 0.309017 0
    outer loop
      vertex -53 0 -2
      vertex -52.4271 -1.76336 2
      vertex -52.4271 -1.76336 -2
    endloop
  endfacet
  facet normal -0.951056 -0.309017 0
    outer loop
      vertex 3 0 -2
      vertex 2.42705 1.76336 2
      vertex 2.42705 1.76336 -2
    endloop
  endfacet
  facet normal -0.951056 -0.309017 0
    outer loop
      vertex 2.42705 1.76336 2
      vertex 3 0 -2
      vertex 3 0 2
    endloop
  endfacet
  facet normal 0.951056 -0.309017 0
    outer loop
      vertex -3 0 2
      vertex -2.42705 1.76336 -2
      vertex -2.42705 1.76336 2
    endloop
  endfacet
  facet normal 0.951056 -0.309017 0
    outer loop
      vertex -2.42705 1.76336 -2
      vertex -3 0 2
      vertex -3 0 -2
    endloop
  endfacet
  facet normal 0 1 -0
    outer loop
      vertex 0.927051 -2.85317 -2
      vertex -0.927051 -2.85317 2
      vertex 0.927051 -2.85317 2
    endloop
  endfacet
  facet normal 0 1 0
    outer loop
      vertex -0.927051 -2.85317 2
      vertex 0.927051 -2.85317 -2
      vertex -0.927051 -2.85317 -2
    endloop
  endfacet
  facet normal 0 -1 0
    outer loop
      vertex -0.927051 2.85317 -2
      vertex 0.927051 2.85317 2
      vertex -0.927051 2.85317 2
    endloop
  endfacet
  facet normal 0 -1 -0
    outer loop
      vertex 0.927051 2.85317 2
      vertex -0.927051 2.85317 -2
      vertex 0.927051 2.85317 -2
    endloop
  endfacet
  facet normal -0.587785 -0.809017 0
    outer loop
      vertex 0.927051 2.85317 -2
      vertex 2.42705 1.76336 2
      vertex 0.927051 2.85317 2
    endloop
  endfacet
  facet normal -0.587785 -0.809017 -0
    outer loop
      vertex 2.42705 1.76336 2
      vertex 0.927051 2.85317 -2
      vertex 2.42705 1.76336 -2
    endloop
  endfacet
  facet normal 0.587785 -0.809017 0
    outer loop
      vertex -2.42705 1.76336 -2
      vertex -0.927051 2.85317 2
      vertex -2.42705 1.76336 2
    endloop
  endfacet
  facet normal 0.587785 -0.809017 0
    outer loop
      vertex -0.927051 2.85317 2
      vertex -2.42705 1.76336 -2
      vertex -0.927051 2.85317 -2
    endloop
  endfacet
  facet normal -0.951056 0.309017 0
    outer loop
      vertex 2.42705 -1.76336 -2
      vertex 3 0 2
      vertex 3 0 -2
    endloop
  endfacet
  facet normal -0.951056 0.309017 0
    outer loop
      vertex 3 0 2
      vertex 2.42705 -1.76336 -2
      vertex 2.42705 -1.76336 2
    endloop
  endfacet
  facet normal 0.951056 0.309017 0
    outer loop
      vertex -2.42705 -1.76336 2
      vertex -3 0 -2
      vertex -3 0 2
    endloop
  endfacet
  facet normal 0.951056 0.309017 0
    outer loop
      vertex -3 0 -2
      vertex -2.42705 -1.76336 2
      vertex -2.42705 -1.76336 -2
    endloop
  endfacet
  facet normal -0.587785 0.809017 0
    outer loop
      vertex 2.42705 -1.76336 -2
      vertex 0.927051 -2.85317 2
      vertex 2.42705 -1.76336 2
    endloop
  endfacet
  facet normal -0.587785 0.809017 0
    outer loop
      vertex 0.927051 -2.85317 2
      vertex 2.42705 -1.76336 -2
      vertex 0.927051 -2.85317 -2
    endloop
  endfacet
  facet normal 0.587785 0.809017 -0
    outer loop
      vertex -0.927051 -2.85317 -2
      vertex -2.42705 -1.76336 2
      vertex -0.927051 -2.85317 2
    endloop
  endfacet
  facet normal 0.587785 0.809017 0
    outer loop
      vertex -2.42705 -1.76336 2
      vertex -0.927051 -2.85317 -2
      vertex -2.42705 -1.76336 -2
    endloop
  endfacet
endsolid OpenSCAD_Model
